<mxfile host="65bd71144e">
    <diagram id="9BTO6AyyVOkzWbtRxao3" name="Page-1">
        <mxGraphModel dx="1057" dy="700" grid="1" gridSize="10" guides="1" tooltips="1" connect="1" arrows="1" fold="1" page="1" pageScale="1" pageWidth="850" pageHeight="1100" background="#ffffff" math="0" shadow="0">
            <root>
                <mxCell id="0"/>
                <mxCell id="1" parent="0"/>
                <mxCell id="4" value="main.tf" style="text;html=1;align=center;verticalAlign=middle;resizable=0;points=[];autosize=1;strokeColor=none;fillColor=none;" parent="1" vertex="1">
                    <mxGeometry x="250" y="170" width="60" height="30" as="geometry"/>
                </mxCell>
                <mxCell id="5" value="ansible.tf" style="text;html=1;align=center;verticalAlign=middle;resizable=0;points=[];autosize=1;strokeColor=none;fillColor=none;" parent="1" vertex="1">
                    <mxGeometry x="558.53" y="170" width="70" height="30" as="geometry"/>
                </mxCell>
                <mxCell id="6" value="" style="verticalLabelPosition=bottom;html=1;verticalAlign=top;align=center;strokeColor=none;fillColor=#00BEF2;shape=mxgraph.azure.code_file;pointerEvents=1;" parent="1" vertex="1">
                    <mxGeometry x="558.53" y="200" width="80" height="80" as="geometry"/>
                </mxCell>
                <mxCell id="9" value="" style="verticalLabelPosition=bottom;html=1;verticalAlign=top;align=center;strokeColor=none;fillColor=#00BEF2;shape=mxgraph.azure.code_file;pointerEvents=1;" parent="1" vertex="1">
                    <mxGeometry x="240" y="200" width="80" height="80" as="geometry"/>
                </mxCell>
                <mxCell id="10" value="" style="image;html=1;image=img/lib/clip_art/general/Full_Folder_128x128.png" parent="1" vertex="1">
                    <mxGeometry x="400" y="200" width="80" height="80" as="geometry"/>
                </mxCell>
                <mxCell id="11" value="ansible/" style="text;html=1;align=center;verticalAlign=middle;resizable=0;points=[];autosize=1;strokeColor=none;fillColor=none;" parent="1" vertex="1">
                    <mxGeometry x="410.74" y="170" width="60" height="30" as="geometry"/>
                </mxCell>
                <mxCell id="13" value="" style="verticalLabelPosition=bottom;html=1;verticalAlign=top;align=center;strokeColor=none;fillColor=#00BEF2;shape=mxgraph.azure.code_file;pointerEvents=1;" parent="1" vertex="1">
                    <mxGeometry x="400" y="40" width="80" height="80" as="geometry"/>
                </mxCell>
                <mxCell id="14" value="k8s.py" style="text;html=1;align=center;verticalAlign=middle;resizable=0;points=[];autosize=1;strokeColor=none;fillColor=none;" parent="1" vertex="1">
                    <mxGeometry x="410" y="10" width="60" height="30" as="geometry"/>
                </mxCell>
                <mxCell id="17" value="Provisioning via&lt;br&gt;Terraform" style="text;html=1;align=center;verticalAlign=middle;resizable=0;points=[];autosize=1;strokeColor=none;fillColor=none;" parent="1" vertex="1">
                    <mxGeometry x="300.74" y="490" width="110" height="40" as="geometry"/>
                </mxCell>
                <mxCell id="19" value="Configuration via&lt;br&gt;Ansible" style="text;html=1;align=center;verticalAlign=middle;resizable=0;points=[];autosize=1;strokeColor=none;fillColor=none;" parent="1" vertex="1">
                    <mxGeometry x="470" y="490" width="110" height="40" as="geometry"/>
                </mxCell>
                <mxCell id="37" value="" style="shape=image;verticalLabelPosition=bottom;labelBackgroundColor=default;verticalAlign=top;aspect=fixed;imageAspect=0;image=data:image/png,iVBORw0KGgoAAAANSUhEUgAAASwAAACoCAMAAABt9SM9AAAA4VBMVEX///+np6clLz//mgCgoKCxsbHz8/Pw8PCkpKT/kQCdnZ2oqKirq6uhoaH/lwAmMD+1tbW9vb3j4+MdKDne3t75+fkSHzLDw8PY2Nj/kADPz8/Hx8fAwMDr6+t5foYACyUAFCqmqa9jaXMAAB//oSMxO0oLGi4ZJTb+/PbJy8+ztrs2P00AFy0PHTCOk5qdoadQV2NGTVr/r0n+8t//yYf+6coAABoAABJudH3++e7+477/v27/z5T/t1v+3LGIjZQAAAhaYGv/1qH/qDf+xH7/s1P/2qj/uWT/qjz/58b+7tS1sZzwAAAQH0lEQVR4nO1dCXuiyhLVCIiIyqoIIhjXRKNxJpmbxMzkZZkt//8Hve7GtQGXpkGS8Xz33s9LFOFYdbqqurvIZE444YQTTjjhhBNO+JTQ87aiaQaApig2d+zLSSs4xbBksciXGEZAYEp8VpRqppbXj31taQKnmVK2BNnhs5vgeZ4RGJ61tPyxLzIN0BWLBTzhLGGcgXeINe3ftjBdk3mhtJ2oJUoCLxn/rIopDV7Yk6iFhTEl6V+0L90UhdJBTM35EnjrH9OvvFViCJjyUBJk5dg3kBzyDYbEqNbNS/pH6MrLRP7no8s+9o3ED92KaFUruuTPrl0GT65VOEqM9ZlHxrwkUKMKgsl+XukyDwyrdgP44uc0Ltpm5aHEf0bj0nbkf3NTyWaLRRGiWET/t/sTgnXsW6OO2i6z4rNFschKkiQ3ZFmSZbkBXrOQs12UCdLnyhg5dusgCIgqSlLNVGx7XYJgJdCwZAkwtpWwEv+ZYi6b3xJbAaZYGfAU+um8YkLCtvDFC1qCdxMvlG1yVZRkY7dh5LWaVNxiXIKZwH0kASNcroqibOwbh3OazIbzJTRivYekYIZxxRfZmnJQmGRbkhjGFiPHdQMJIowrPstah+ty3pTCxOsTsBXGVZGEKggulK4Pz1YIV7zYIB/t8xb7KW0rRNuLUrShXpHFQOMSapSu+xhQArniWStqyK2bwcb1gSMIOzhsj2hW83PLgWHEh41O9UAhFht0Cpy6FeiKzAfNfKSAHIdnTWoFKI0NYIvn0fl1jvNWmGiaYue51Be9rADB4lmD4jcoUoBplSTbBKkRWmDCMN5/SlmQfaZ5gUmguFOewcrLAd/BCwErAviSIDBF2UznHIceJCjUp6+4xrbs2s8jw4iWnT4DkwMEK4a5K/0wtrJwPruYtvn/oGg0lnk+vXEgWQCMwKYpwghwQj6mKWQStoA/ikZqvNHvhHFxBdgKUvnddAlFmgNzBPhHQj5Gw89LZNORgpgKZ/TF1rwY58+ohFQhdoEXpONLvV/di/HO7Rmh9dNddDHHzrx1/0XFPcluHRpALCGwxzUuEy828Gzc2S2ZyHsXxxxT6P1hQ6yC5YFUtiCExvGiCJ9hZZOYpTKJHREEqeyx5v/9hhW7E6KvlTe/F64wEb0VJrsXmPDHmv83cMMqJjPgrDsioEiSZcuqgX9qVk2WWHHr9D8QruMsXMIrcnxSy81q3tcVRalhavn14pXO5RWzJonBsxwejlKPtvEYK7Ew2WZ5yJSlhAgQZ5vyFr6OwZaMX01yc3mWyFrblwPotimF0pU8WzqeQSeYf9n71EE5Qw4L94WkdcuX6aRvkljXQqZoeSbhYB4vAKQjscegG8HLJeYzQ0mBw+MGKTUltg1wVqAv8mySF4EHWQnFWARQAhcSJrryGffCI6f028DVgpQrwSHRl+qkeu2iGTSjXUosTcTLyQmUG6IgaP6fl5L6dhOLso6Wze8JJaB6LyT1A+O/VKq9ECKIrYTiB1yyUu6FEAFslZL5ifEkOpFCVkQoft0Skrhs36+0j1ZqF5etSevSjHCBunE5GY9bF2QdH/wzQ/FrvG6Ivq2XuyK8/OVd13Uc1wX/ubpuze/VPgdorg0NdhMcuFtncwzfMk97teaZ44x6Pddxu3cXBFdu+tiKOaPWzax/l+oOyco/qU5VPTurnCH0na53q+Z/1Wr123j1xmYbHGg3Vwdk+I7/vJXJY6enolOAf9Vq+/nw8de/WCLerMfIBi213TFjP3XUsw30HcSW3gXH1enqjUPIqDpcHWhWATUqpEU/b3tkq6p3snbr8Ku3fSIfo2nZbPBq9+1RFgfvTnWhYagjp+rdMcqOmlfg9dXS7bQeoqG3ugHIZvUOvdWBf3JHleF0qLpu/6w3IbgBn2zFp1qh28S3GzOn9t3e9eTC5jhOke9cdNdP8C81wEDFuVy88RIRcrY6oDmL/71oI4onCqfrOqe1zkf/IyFrXr5fN614BsR8+B7V7dsd9OFwsmbtjRG87zMo8sjmrp4Wf3m68ixreQCx14e3cwcNsr/m7dqYyIFsPH4oxbJVY9s28R3lGWy99Rh6m6da533A21Kjpp4arVTsDvy5/5yZq1tvnIkO3xRtHGF86F5CgAMXiynQtFykz8h0RnMbsQGJ6gRYV39e7oEUVdAb7f6Gv0YAhy8SZ+iXarZuqT802YGDnudr9tWaRjWcM7WrVBdWB+TYXVCZ78NXRCqFAw+26Eu8vLX9AHugfFyDW682ly+v5oEVcM/+OWRyMdC13MrcJ3XIr1qhUWD0mRbtupa8vf3AoWQ9r8iauCvRulbP3AkIrSr9a+8AULSK6xHXhDrX75LE7Thw1aLsh43tbS323lOoz7X0fEUWCg566PPQ1doXSMZQGJrRK8CcXGP1vjPVmbYiR5E2tmaJpzqHF7Q1Zw5RZGXLNHcbsn7xdD3sdofX52NZWyML6ZcnWheAj76e0dyFaMEDy6Fy3PZif/fqehKxHtTAh3WK42FY/wFeZBvmnjs+Wl3nqg8SFbXfv3JQNFVdCdX8NfBI6H9wCPR8D7roKly4ay9yJXc0nUQJJfEwnmJc6lv/sTAqee9Wovnn9jyCUpdJ4oIsz3wg5UDJ0HgH4k+g896B5cAIMKm66jwXV93RmNwcOMwP6a2eDN53yYvy/jUlbopyvp6jdrsVtee46hpZSJhGQLR0ENUjaloggqjoXnivdte+xR4PXXfBtjMlHxqxZan0RKsR1FvmsG3iTRguqb0nE+V1Sm0CdWpBFiosQNFCkgUJMMALx/AOXDU3zqQb46nr9L2k6Jn4nozN8ZAXic+0CS1o36V40B5VNJCp/TVbB/ysyIKjHywstDzJ8mwNhu1QzRx/5qa0rj262sQBPb6Gl1Kkpfu6a2cP3iY+HgGhcdfv7G6dLBgxqF10cK7m5/0KZG/aB44ZeBvmFKXV06C/7QMdFy06RS0rIBqVDxw8YJCORGiJtaA040VdjgZLV4432wJsDEQM+eqilOUHh1LuK2KDwESLjsLn/VwVG4deIl4O9WKrFQ+XTgVEWhrIrqvez2A6sAAIa12hnnYJZdAhNggTc0Mqi1r8++OKhy+795FlwjvtL/VZQZEWuP3Fm6BoOTKUrFDbuXAikYVFWlSGwwDDIliQjHLgs7XPQS9cpw/khOq02V9VAYFjVsfP6jzcCkIL8l0lDrW0TdHiWQoxvC9s4Ek2okFNWhN4/W7kBeLLU03cymY5GYbu3cp6fZm73LCiPLTWPnnsgA2HvBh9OOR8XB1aXkDwKutVLxTXrWHvDLLnFfUQDK/0vpqouMAPZC7/Nzq/XA4sF0N4hja582AxPJ+NnvD4tuaIRELIVdDsjnM+uZzcdR0QRKGCutpd/pxDFJavysucF6YvKjUZJOh9pzq9G7dak+YQzaz1Qn10N/DYgUK7WN96OcKf8vKbd+8jdwSnWttjFE2c/bd0sqfeeraYmavaPJ32ToGyaLXaG7m9KqKyN4yyDACPSqPXffDgncgJISbfVpOsPaheBrj39vnSsi6+YRH5GPmhswp+81OUilcg4JS02n6O5DnUo1ILlyzyJau1YbvXV9X+lVNtoutqfauuTyg/j6rV3nClskp/1Os563mh3rruOT1U5VH7rjONOHdBnSy83BBlWZFee3qeTp+bS5HGGpbairKxvYTTwAHsHMolOEe3252eT6IGkdTd0OeFqegCres0yprUBR5f6E6sWCmEj6yooQO+6Suxtb0JAJuz4ItR59jwwCG1OygIgEfwUdda4+F7qroFRYWBkRV135GCS1aa9jEN7r++375/HZB+HqsrR15Jg+t7enYTvj9+75QLAOXcn5uvRKewNu8tcucVfAsF2fneyW4mHIOXV8BSOYdQLhdy9yRnwZY7RJ7Ax6ZtyXYFDMqFN6K7CcNDp15eAPFVuCU4Sx4P4ClHDoT6/lKv516IpcWH93oh13n98n02m/18LZRJydLwDi1R9RhbTkgakv4ArtKhRtfg7/vKUN9fAVsFEj/HSvDR13dTIivz3imU651Hqs44x0shV86R/A6YZJUiJ3K0yMrcfwH3VM+90ZT6AaLoFzjxF4JP43Os0fe0UiMrk7kB6gLG+t8PlLzx6+Nr5x2dN1e4Ifg85oVZJnIFniJZmb+dAtTiQufmPeplZQYPv8vAsd/Ay5/lXOHh8DPomBdS2JIiUSQrcz+rw6ELmNeflyjuOPj71oFnKnTAWe5zZJKlYcuzKEyxyjTirBUekHF5fD3eEvnj/cNbB4bt4BwzOF48EHoh3gePwlo2vKgclf77m3Iht+CrM/t1WGI3uH38mUNMQbPyfO8N6DuBmfra4BUPPwcOPDeMvmvj/XthnqZAvgBhL7f7BBSD+weQDBYWny0UbrxPDUCCOCO4DHz3TvTAwb8wi8bGvNsvS7pgYlevl19/P/54vx8EWtlgcH/76wbwVF8mg4Cq2cKYgBeSJIY+w6KxohR/hAedXdB/f67R5aXCwGY6f77Pbh5ffv14+Avw8OPXy+PN7OcfZIDltfeD8GM1nP4u138RXAGuWFS2Z+L9Wmntr7+FI39uE2XEWaFeL6yhXN58GwhsZ2uRx325TuKEvg2HdJo74Js+qW3r/3qzUqB9Ach8fdlwusf6T4Ix1d/Jms6mMF9PEHqdeQYPs9wBfMHh8wavLrzNSOIP395MOuvYfN1m6PZ8un+YdTYFKZSo8usNWWDmh79ZAbW1t9h5aXcT82KneihjUMjKndkPehm4bxtrlqE1c+zrUxdDC5XB+4+3L15FHUm6B6/ADsKKB6pVac7X/zJbomUAmq9RXVydjL7ePvx6fPv9/QvEz++zt8cf61U+Sgh4BAa9HvG+3prp7VS3F4I6ydNTFt9Ws4/QnicUAY0SaXay8+8HS6p5cgwIeJJdieryDd/gEfMDKuKDHuSD0Suk6/DtcuLJluAeHYEPGqPdxS7hB8XEheAH/tFekODfQEf3sYXJwNjyKEma8H/Nh/NEO7ClaxwNewI2SPOi9YHGRN0IcsGY2m4GbTgsHrrj8GgI7XEeT2fl4P3kFJ9NGyMgVYFmFdsDzgM7FfBFOT0PDQzBlgcNlGJbxhjcC4o/oK3DEcBpVvgjLOLjKrRrDy+yNS2NfHG2UZO2PHwnTq4yethPxBdFtmEZdp7LpwLw6dsmeurOtgc7MfE+EoEL6lewgMiKIpsSiODX2/X8QyHulcR5/6OtN00sHdhBk8dV/KUAewdbHwXJPOEwv9/vlnIwxWSiaU4MauDzsSAkVrvUt/dITD9KfJL1ktBmwR8BfHJm5UEJ7Nj9ISCIiW8t1Wsf07iY7FEqlgr74ejiGf5oNRLN/0yGNKMkiEetjxis8EHCCJ5h5KNvg1fk0pZ+5ykBYErao9tsAuAMqcSkNwcqMQwvGyl6Lh6nWSy4KEBZajgDyTS6IlHetzNvktBtw5RZEV3isVEq8UVWqpmanQrfC4GucykBldYrJ5xwwgknnHDCCSckh/8DM1NgQ2sF7GUAAAAASUVORK5CYII=;" vertex="1" parent="1">
                    <mxGeometry x="240" y="610" width="125" height="70" as="geometry"/>
                </mxCell>
                <mxCell id="41" value="" style="shape=image;verticalLabelPosition=bottom;labelBackgroundColor=default;verticalAlign=top;aspect=fixed;imageAspect=0;image=data:image/webp,UklGRn4NAABXRUJQVlA4IHINAADwXQCdASr6AdoAPm02lkckIyIhJ7N6uIANiWVu4Wnfom/oQd/v9R3Znbe1/mN/cOtY5P8F9R+ez04+CvQHtc9F3mE/lZ/Ov6r2Hv/P6APNe9Ff9u9Qv/kf2brdfRg6XP9xPRV6//pL+uf+g7hfI19d/vP6hxT8ALulvQPl6L38zrPv2LxsPaU8AOVcTeALJlx+cWGXsZ+ZQNtke88lys7fZfRu56Yltke88lyY+Rapj5xwaVN7/zFVKSNMo8PkBi4gEyXQcgJyVfFT4P6ClAsZPdDHd/ugrimKJLFc+cEc1Pf2fRZoWvkB5HD5AYdFtZOsh0lNWCccpgTmJJFDWl+aw3TZdUzVw1tKjErE63fxNapUMiGZ9r7pmelfVGlR8hi0IOIspyyaToZOWqkhDC2fVyaKtOPWyWVwZRS5qzB9Dlnq//swx8ry1tQJkvYWieFNNAYqZ5p84T7+EntN9nO6LarPMXL/wb8jwrrPwNtudzoE+S7SyXKb6jsLEMYItogzERwjJ5VDoJi0lhvMXhZd53oc7i+0DOfStXNU4w/zvKmexFdljdPYZHNUCYl6/y40PqDfzDjzguVNAMDR1BLdo5XZcM+qsH3mh0xnLpxMu7zPgl6se2daY64k6nR1clBa9rSz9U8a0rLg9+stzV97t3oC3XVAz8MxxOgi+HoHvkJG4W39E2x//sXVpy4rj54XTVtLgx5OEflWoVRJuRStv50BGEqLz2BqSISXOW/ygcDELfdMz2GcPahL5NWyMWtsRIuGztf5A4PGmB/K26AB/eK4WMS39m/PN9uK5AYtVazFpZ1Y4VQMYHVOnlYKzLUS3TIzCwYCTa5y3pk5PPTAfANqAcr7WQPkBi1U76NcHmJeugie4cqHCvMFOvFaUsjsx6pQxHmVPziwAEyYJtzxyFyK9rC5lsAmS9hTvGbxz5hBd+QXrY7ntikMWvmhjEnRefsr2Wv+T8ksm2aZfRPS05HEk0G2yPeeS5Weh77L6N3PSs2qR4AAAP17Muy8+1+Ku8Rq6IoAKnWH/0fRMCrMUj9VBqMGsJmNYA2AAAAPSgjP2u17zyf0vRr3Id8EWAqrjPOI3j90spVzynSOs21ZvDn2D6W7mRiz/9buj8TeJ69Rl/OeABTuqrqAHktbVWRb3W4KPIgAFtt0xq+N8wvy/jKbD5xpeARSZ+IQMBBV+4Jvjp29/5tpJYNfhCAi4pV4kJDyV1U9Z0F8YJZQmBkAVCqEaLhRvcp7247f9t3qXv4VNSkQyUhvZAkk2Uga82mYVu80OPN2PKfsuzBOioNAMQQ/B93LodkT/8z1v49t+FGtzky/kkzNiDq74PhmHXBdHJoN1qGB+rRthLZCCB0ffIZVs8IZgV+KW4209Bh6Th2Lo9OE48hIMRPKBu2Oc1IMkfbgpes0zDNUxDObZpJU+1tkcIcb/XAM6yRMRw8Ukks13lhw4cHALWfdhaP/q6h5QJB/7hG/rBK4AAeJi5pskBCoFCL5ZwtTROXwFUmJkQ7ku5NK5d+D73fbp10BxlBJkJ/+24cdr9YvD90ZOtCXQlbwliWa7YHeThwYyeJZaAcnigmOalkVoWI8Tl6wHxcTlIez0gEx66pzsdkRNlqK2VjiPjD8FeSQzxedWTDargNO1a9iUSVFjXoY7shU+fdMiYrIZHWNtEK8iD5yR1LowCMof0K16B4w/76t8dmVYzD1+kTUsc56jcjjASBxSXigsQXPjnFEevh6sCnABk9EsgHPqOz4b1u+AjQkL13l1yd1ZzVgeMxO07O9m3JsxYNNe2k15jB5p6oK0MM+3EW0l/k5JCSl/hVPy1YRZqDJBXf1IPrF/hA01TwOZg6H6D8Aa9EPekr0rZV7Y74pmkRw6SxC6jHi52P62gjqSE3puGaXU4PO+mg34HzHanDU/q2Eg7z1Sb9fJ0heaG1V+UJibbPWTFcsOJShyVJ5+HF010lQkiC6Met3+hI5PDWcsefk7MoRIcnzKb8RJt4NVAXlWFF7+BrQOfGi+uXgV3jj+AkX2ZanpLevaUID+CtFbBFlrPlvXswMJtFiYA0CtDZwM49IQGyBkrzhhVbvtDilhrCPfg8xu++kMe+tarD0DmRgZIXH1n4DszbIk4gBpjXs9+QyOfvyCQ3OXqG6ocKpyPhfJPpwR1kWZYklM3ZcOSMBOqVTGuHgLab8l5JZKcGU5Shb/Qc6Kq0SXCK2+amovaWABPQ+wFh1HFoSdi0WCK2sAE+df/CfZ+ZkNxK+51vMVnZgzxQ8i/q3xKfDN6a7yfz2HwCcINuW+VL+VZmofySFrecifLXe5di8nKHtiXraPHUoJqQnBrClaQc9lTAbQI/lxHrEVre7vqBR+47lCt1/6P6lFg2duzYy+7tqzXd1Iq//NMNF1vN3Qp20HuCcW7SOkoZRO6p0ZyNOlJdAAFcaUQLcgPcnl8Ekty+hdPG++27FYnyCLsuO+6/oqQPJ18Afi4HPcD9Z9QfxNX1UT+JM7NFxvKNlK0SS4WIzzy89ajw3Y1MwsOU/zwzH0NLE8H6rD9yyHkRdTVsE7wpqvwER7Tnx4ywMgCJU/HuJ0inf/2Y3G91g+pgXuEseo/L3iqcMyquT5GO2/uHNw8i+Oe23pWgcri5NdWVhmeDxBxWzaRBS1b7gURfIDgAnkB3VuC6ur0O9LLumWYI0GLeANkg0auL6yXSd+Q1onZlGHtBJZ02kHNDhE7VqJ89k4GTH7pTW9HDjEqLMU9sgueU6yfYbE9/erXMvnfFbMJDcUazrcdI904SpaGB9APPpwpQX8GL1gcPpe7mMT1Ess913youe/qG/an8ckclL/pqfnCnuwniA4kxjjX3BLIkpbbVnUnwdAITxQ+JEaR9lEmOseY4KFfM6oVAmo70qvhVP/xkvCkMzF9IIK9bujDyx7L4YYkmfMBeW0p2hZiE2XHaQdiCZb9nsZLg8dxfPEmL7/6aWmG2b5c0K3RJEItL+BDjLko58+RpSXO7SRIRZq8GexbkSzR0uWUbaeseWvP3OKhkBwdxhnK3Ulpiuvf9L2GlpH5Ks+qu0jVH+No8G3kDUXS03/32fse2h7mp+mR08OPPFzhcF/lf5Ktot+1EbUt/Ba1Tulxdpj6IdlNiTH8k+bYP6H7fmd0rX17L/jxXAGLRvVKsgqSp0Yii2BiVMHqD+PMCVq9QaVSLLWcEA/zeKUmlOUGyfwbVfxX8GnJRN5hV3rHctd/VKW0rSa0xZwRdL0zn+rSzoqb5kLCrE6znWA2tVANYAW7ZopdbtnwCLkbER8NdMBL1uzJUMlq5wFCEQzhqqi7SIIRNkQG/T6mBn/eCvttB/HJldHKmypuM4iBWbjtmuL9B4o4TfReF7ER2fFjE4P6uEg16By7tvvfgaY5sGkGE9mLsje8yWhnffsIawyuz8B+I+mE11bVZ+yg2N7p5oVC6X6s8Ey0eTykCMT+AXu2N7EhKSArCBPPerkEdsG3bhDm9wIdnMTk4j8Dd0p+1KIA4Baz/ExK4zRdv2Tea95q9Of5GYhB63H8Thm2MXwUHtNtCWnIhHbrLB/iFbH2Vc3hPoxewisSdTp4c3+5gieqGAOB/3b+7yXm3XuvA+7FSK5+ClZteKcyf6xT1TXDBBiyyL6ZD3GzByBIZ7Rn1uDSABmH5AcKXM21iCPb1+D714ba+508QxQAy8t9XGifTse9+E73uwllEQJ1hFKHiDi4UCBGfzsj+jH4ZhRNm0uiLdUEeW0KK6u1putBXS2X/zoUyOi4f5v2jCSSFBdtbePrfLx2rYx3BtgW40cGtFkvtVtOTFNx8S8AZC8dlJH5PlmcVdRxAiLUtiXvbDL0sTGmOFZ19PHS41efiUNLgJnBiUIPZ60PAv+HGXxr/b9qiipmW/ZvWicHYGmd/DnhQH/Grlm27kZ3EjgWqpj25mLBXHH1wpLSXc5AdgsFVR1fRVukD+8wW+YnZOIfcWS5SzC9o1tqi8vCWIWW1lsHPWYspAch6jqlKmr8c9UPD8GuiQ/pTZy5imu8+k77MJvwv1YXiDQkxspA1RU3Fw5NXA5mNxofxL1CvwllBJi/rQg+Zfdf8AUoFiNlGp509tNT5uqKmWcHTPzmmYoHL31ySvBeVTtZbLL6aZJbBPxY4trADgPpxfjR9iwDm0q4ulmcuItL70X8aUqSPEh9/hMeV7FZOSeke74IsGN+JR/3OPq+NyEmvUSaOiMAaRU8Kd7jDJzvngJRPJK86tbdedLKJUhBGslS8H90yeBOwTF1WekUek4V326WgfhV6t/SPo6lcQmkr4K2g8cXV8dFSFDrXjhOVviOphoGViz3YP83afZJ04v1KADEPrqAP4+dPbZta8TdeafWJgq8Vs0YC6XQ1qVvYv7vptm20taK8hoeE8/oaFl1Rpc5xeuHId0T7HmF6jNJqw3nkvrJ/BJORIahGQlj4Q6UXlYklB4HogAuhplUBwh0yU4p3nAHn5XzU6kAySpv7kbUFSrY78eRnNJH0G3jW6fIz6FuN+fvaGKecLxMjnvlKHTnZ6uC4e9cHg+sl18mIV4ClZ/imHOj1S3HQAAAMDTbgdPe+b9vRn6wrAAAAA;" vertex="1" parent="1">
                    <mxGeometry x="300.74" y="360" width="278.53" height="120" as="geometry"/>
                </mxCell>
                <mxCell id="43" value="" style="shape=image;verticalLabelPosition=bottom;labelBackgroundColor=default;verticalAlign=top;aspect=fixed;imageAspect=0;image=data:image/jpeg,/9j/4AAQSkZJRgABAQAAAQABAAD/2wCEAAcHBwcIBwgJCQgMDAsMDBEQDg4QERoSFBIUEhonGB0YGB0YJyMqIiAiKiM+MSsrMT5IPDk8SFdOTldtaG2Pj8ABBwcHBwgHCAkJCAwMCwwMERAODhARGhIUEhQSGicYHRgYHRgnIyoiICIqIz4xKysxPkg8OTxIV05OV21obY+PwP/CABEIAZUC0AMBIgACEQEDEQH/xAAcAAEAAgIDAQAAAAAAAAAAAAAABgcDBQEECAL/2gAIAQEAAAAA9IgAAAAAAAAAAAAAAAAAAAAAAAAAAAAAAAAAAAAAAAAAAAAAAAAAAAAAAAAAAAAAAAAAAAAAAAAAAAAAAAAAAAAAAAAAAAAAAAAAAAAAAAAAAAAAAAMWo1eF39vsAAAAAAAAAAAAACNQWL9Ryc7iYTrvAAAAAAAAAAAADU1XGfnuSPcdz51uj0Hxnndk5gAAAAAAAAAAAIVVOHf2LKMoOjCq8jm7vfbgAAAAAAAAAABAKuzWfOfoAdCnYBtPQO7AAAAAAAAAAAIdUHcuOQgAcVZUe29F98AAAAAAAAAADWUT83VIQABUtUTW++QAAAAAAAAAdSK6ptpPVcPtOfAABj8/xO+JwAAAAAAAAAMdd17gGbFu7y+wAAR7zjIvRf0AAAAAAAAAxVBEu1OpJzoYNrLimAAACgYb6LkoAAAAAAAACsK93tybAYopLvoGPn7ABX9HWrbgAAAAAAAAGrobs3r3wA1Faw3V87ia2TsADVeZJb6DAAAAAAAAArat7OsMAKxqHDwHduydAMXl7t+mwAAAAAAAA+InVfQvvbgCoqlyZJjJPmKxPif3oA+PMWD1HkAAAAAAAANFVumbC88oBE/NnEmvqQCIwS5MoD48xdGY7SVzPtgAAAAAABDqsxyqwN59ADznCu76c3AAA+PM+v8Aj4dy0rNzAAAAAAAIvUP3aMx5ADoeUsVv3EAADDxi0cHrnqSy+O6AAAAAADpUh1bclQAET81PSssDB53xH16E7wAa2kIfJvQmcAAAAAAKygk8swABDPOL0/Ig6/mvEc+j9iADBREMtC4QAAAAABgojHe/bAAR/wAvPQNgBjrL5ikcy+lc4AHR829P0nuQAAAAACN03LraAAMflXWTX0XyDF590slvwAAq+nrVtwAAAAAAgNa2XPQABTlQr7sYOKsrJc07AANX5jkXo4AAAAAArivbZmAAA6nmXPY8ikve418W0EI3V6ZAAD58w4PUGcAAAAABXFfWpNAAA0sMwOMvHwdqed4AAKh6tx5QAAAAAEJq2wLIAAB14jouB9yOVZAAA4rzBY+QAAAAABpKS3t1gAAOtqepz3drnAAA69d9mwuQAAAAAHxR2ruzeAAAAAAANDD9/LwAAAAABBKykdxfYAAAAAAMcB6k52gAAAAAAxUnp7CscAAAAAAESj21nIAAAAAANLTGCe2PkAAAAAAfEYjmaedsAAAAAACPVD1d1YkmygAAAAD41Ua12aa7MAAAAAAA1VWR52tx3+ft8SHMOeHPzyc8A54c8MOHp4XfmHfAAAAAAAD4jEKj3WDiadgAAAA+9hvN59gAAAAAAAGLo4jln+w4cuDkDhyOHZygAAAAAAAAAAAAAAAAAAAAAAAAAAAAAAAAAAAAAAAAAAAAAAAAAAAAAAAAAAAAAAAAAAAAAAAAAAAAAAAAAAAAAAAAAAAAAAAAAAAAAAAAAAAAAAAAAAAAAAAAAAAAAAAAAAAAAAAAAAAAAAAAAAAAAAAAAH//xAAbAQEAAgMBAQAAAAAAAAAAAAAABAUCAwYBB//aAAgBAhAAAAAAAAAAAAAAAAAAAAAAAAAAAAAABnJxj4gAAAAAE/o5Ub2VW83HAAAAABfXfMVp7bcpLkgAAAAC4veNwBrqrPcAAAAEjoJkSy4vQA0V9uAAAAJPZ87XTttGAKix3AAAAHWVlMF50cmJzdMIGcwAAADGv6+kxFX1++BZbeVEHTN3gAABjTSp+Q85K7swGiNq12W8AAAqt08Gnk+t2qipdXkGisttgAAGFJfAY8h0k1pq63rAIka0AAAjwLcBQ831drTc301yB5S3YAAEevuAGHzjlsvOu+h+gPk31bMAAGNFe5AEKDPmAEL5Z9gAAAVizAAAPnc/tQAAHlNuscwAAj8NV/UswAADyvhe+uE1AAw09T3GwAAADHxoAASfQAAAAAAAAAAAAAAAAAAAAAAAAAAAAAAAAAAAAAAB/8QAGwEBAAIDAQEAAAAAAAAAAAAAAAUGAgMEAQf/2gAIAQMQAAAAAAAAAAAAAAAAAAAAAAAAAAAAAAY6fd3oAAAAAByxOjd5p7JfaAAAAACLjpnsPOL6vUYQAAAAAcEZYMgdf0WgxoAAAAaYvRu5LDtAS1z+bAAAADTXpbr5cZIAfSaPHAAAAEF2yAcEZq3SfcLjyVkAAADCB4bbkLXA1/p5cJcWyRrEV4AAANdSkpzMZfX6NVwEtNyPbRIsAAArPVOA7frnyDlV6AX3MJS//OeIAADXTrp6DZ9i+aQjmhIW++gsM7QQAAOCEtQC/wC6h83XXOSxgZfVPlXgAAOGBtgDOckfEVCegLhUPAAAYUu6ZgG3dp1AG2w1kAABXPbEAAATemKAAAYVPrn9oAAZy/RXvAAADGCiMsvPqO8AHuUfE4gAAAavHT6ABrAAAAAAAAAAAAAAAAAAAAAAAAAAAAAAAAAAAAAAAD//xABFEAABAgQCBgcFBwMBBwUAAAABAgMABAURECEGEiAwMUEVIkBRUmFxEzJTVIEHFBYjQlCRYnKScxczNDVDYGMkVaGisf/aAAgBAQABPwDHz/bc9xy7B9dznjnsZ4Z/9i57rPYOB3PDC26y2b9gy2fPfXw44enaOe95brPfZ7jPsOfZs9/y2+Wxy2Lxfc3xO9ts8Oxce23i8X2b72/7aOzZ7dtvui2+tsZftH0/enHmmh13Ep9TaH9IqQx700g+mcPaa0htVgVr8wI/HNJ8Dkfjmk+ByGtLqKsAl4phiqSD+Tcygn1gEEXBv2i3YfXDPeW2DvfruCQkZmKlpRTJEKGv7RwfpTE9ppUXyQwA0mH56bmFFTr61HzJ2kqUnNKiPQxJ16qSZBbmFEdxN4kNOgbJnGfVSYkalIzyNZh8K8ueyOxX3Hlhn+0X2KnWZKmNFbyxrckDiYq2lM/PlSEKLTPJIgkk3JvhLU+dmlAMS6138oltC6u7qlYQ0PM5iGdATrfmzmXkI/AMn825C9AZYp6k25eHdApwIUW5lCiORyia0WrMtcmX10jmjOHGnGlFLiFIPcoWwl5qYllhbLikKHcYpOm60lLU+kFPxRDL7L7aXWVpWhQyIP7Fls5fsekGlbMkFMSpC3+/kmJiZemXVOvLK1qzJOFL0bqNRUClGo341RTNEKbJ2U6n26+9XCG2m206qEBI7gLbc1TpKcSUvy6F/TOKloM0oKXIulJ8ConpCakHCiZbKCImHy6rLJIigaTT1GeGoorY/U0TFGrUlWJYPS6/7kniOyZbV9xnseeGcZ7HLDjscd9x29KNJxLhUnJrBdIstfdClFSipRuTzMS0s9NPJaZQVrVyEUTQ9iWs9OgOOckchCEJSkJSAAOAG7nqbJT7ZRMspWLRpLoRMSGvMySVOS/NPNMcMjFIq83SppL7CyM+snkRFErcrWJQPMq6wHXRzBjLDh2XLe+u9zxzwz27Y57OlNfEgwZZk/nrH+IhSlLUVKNyYkJCYn5lLDKbqMUOgS1KaBHXePvL3xAIIOYMaX6GpWlc9IIsvi42IIIJByIii1iZpM6h9lXVv1094inVGVqMm1NS6roWP4P7DnGeGeF+wcNzls1WotU6ScmFnMDqjvMTk07NzDj7qiVKMS7Dsw8hlpJUtZsAIoFDapUsBkXle+rc89xpvoqAFVKSa83UD/8AcNDNIV0yeTLurP3Z42I8JhKgRcZg78YDY8t3luM9nz2LYW3FsJmelZVOs+8hHqYm9NqazrBlKnSIXp8f0Sf8mG9Pj+uU/gxK6b012wdQpsmJaflJpOsy8lX1jS+rGbnjLoV+Uzl6nDQ2iBhkTzyfzF+4DyGFsTvXEJcQpChdKhYiNLqCaTP3QPyHblBgEg3HERoRW+kad7F1V3mMj5jsHPG284brltZYZbpxxDSCtaglIGZMVrTOxWzIehciYmpiZWVvOqWT3nZZmH2FazTqkHyMKUVKKlEkmNH6WqpVFtsj8tPWXCEJQlKUgAJFhHHZ9d7pLSEValus6v5iQVNnzhaFNrWhQspJIMaLVU0yrMrJs2s6q4SsKSlQ4EbkbPHc32PXY9ex3wOxnDrrbTanHFBKEi5JjSTSR2ouFhglMuk/VWEnIzU66GpdorV5RI6CLUAqcmNX+hMM6H0Ru92Cv+4w9ohQ3RkwU+hid0DbN1SkyU/0rifpE/T16swyUjkoZjDQ+mfdKf7ZYs49n9MM+xZxpzSxI1pbiEkNvjX+sAkEEcRGidR+/wBFlnCbrSNVUZ7jz2c4zxzwzwz2s4z3fLsOmVcK1mQYV1R/vDhQ6FMVV8AZNJPXXEhTpWQZDTDYSOZ5mBsOstPIKHUJWkjMEZQ9ohTzOtTDPUCVXU2cwYSlKUhKQAAMhtlxscViAts/9RO744faHIh+jiYHvMLw+zWesublCf609vthaLYW2LY+W1eOOwcKxPpkKe++SAQLJ9TDzq3nVuLN1KNyYp0i7PzjUu2LlZ/gRT5FmQlW2GkgBIzPecLxeAYvjfC+FTrlNpbZVNTCUnw8zFT+0l9ZKZCXCR4lRNaU16aN1zyx5JyhVQn1G5nHif7zCKlUUG6Z14H+6JPS6vypGrOFY7l5xTPtIB1UVBi3etESFTkai0HJV9Lg8jmMTheL43ity4mqTOs2uVNmFDVJT3RoPMqY0hlgODgKDF8ovjfC8X2bxeLxeL4nC+N8fLf57dtrTucyl5UH+o4aC04IZenVjNfURu8hcxpPp0iVLknTrLd4Kd5JiYmX5l1Tr7hWs8yb7chUJynvB6VeKFDu4GNGNMpeqhMtNWamrfRe5eQFsuIPAoIifaDM7MtjglxQihL1KzIKBt+cmBwG36xltct0N15bHpv1uIbSVLUABzMVLS+QlSUMfnr8uEVGcfnZpcw6q5UcvKOOQihy/wB3pcq3qhJ1AT9d3p3petoqpkg5ZX/WcEIXrcTng0068sIabUtR5JF4p+gVcmwFOISwk+M5w39mA1QXKmb+SIf+zFQF2alc9ykRUdCq5IJUv2IeQObcKSpKilQII5HDQ3RV+fmGp58Kbl21XTyKzHAbhfuK9DFW/wCZzn+qqJFepOyqu51MNHWbQfIbjz3h3F+0VavSlNSQohbnJAip12eqCzrrKW+SBhq3yiTok+++xaXXqKWM7Q0gNtoQP0pA2TePPG0aYV0UWkuOIP57vUaELWtxalrVrKUbqJ5kxwjR6hzlcmfZMiyE++5yEUXRynUdpKWWgXLZuHidmv6I0+rIUtKQ1MWycSIoegM2ufUaiAlho/5w002y2httIShIsAOWzngMF+4v+2Kt/wAznP8AVVDTimnEOJ95JuITp7X0i2u3Et9pE+gJD8shfeREh9oFKmbJfSplRiVnJWaRrsPJcFuR7TfHl2O0aQaTNyOvLS51n7Znww886+4pxxZUo8zABOQzik6Kzs7Zx4eyaPfxMSGjtMkgClkLV4lQlKQLAWGxwi0W2dPKsahXXWkqu1LdROFOkH6jOsSjAutxVvQRRKPLUiQblWUAWHXV4jh5Yee7GC/cV6GKqw+alOEMrP5quUfd5j4C/wCDCmnUZqbWPUHGTqE5JOBcu+tBHcYoX2goXqMVIWPAOCGXmnm0uNLC0K4ER5bPDC2Axtj54eWxaO/s2kddTTWPZt5vrHV/p84Wtbi1LWSVKNyTDDDsw6ltpJUpWQAih6LMSYS9NAOPchyTHDLeVKZEpITcx8NpSoecU6866o3UtZUfqcPsxpKSH6ktOfuI3d/PcFhk5ltMewY+En+IdkZN5Oq7LtqHcUxO6H0CcCiuVCFd6Moqv2bvNhTkhMa//jXE5ITci6WplhTah3jDR3Suco7qUKPtJYnrIMSM/LVCWbmJdwLQsbXPay7Dnvp+cbk5Vx9w2CR/JifnHZ2acfcNyowhC3FpQgEqJsBGjlCRT2A66m76xn5b7TZ72Wjc8e9IT/OB4RoTLiX0ckkgZrTrHamCQw6RkQgmH6nUi+8fvr3vn9UdJVH55/8AyjpKo/PP/wCUdJVH55//AChNTqQUkiefyI/VFNcU7ISjijdSmklRi27qNKkakwpmaZCwRkeYjSXRKbo6y63dyWPBXdho1pHMUabTmTLrVZxES8wzMsoeZWFIWLgjdeuwdxfsmmdSK3kSaFdVGa8NDqQHVmeeT1UmyPM7obOnySrRib8ik4HhGiqkroFPI+ENqZ/4Z7+xUPf797+9WwOIik5UuSH/AIk7F9i+y+w1MNKadQFIULEGNLdGV0iY9syLyzhy8sNANIC270bML6is2idwMM8c+1HCYeDLDjp4JSTE7MLmZt95RuVrJiWYXMPtso95agkRJSqJSVZYQLBCQN/pPL/eaBUWxx9kSPpj9nU+JihIZJ6zCinadRrtrR4kkQ59na1uLUKgACSfdj/Zwv8A9yH+MaQ0FNFWygzPtVL5W4YMILr7KBxUtIiXb9kw0jwoA2vXcVGQYn5R2WeTdK0xVac9TZ5+VdGaFZeYhh5bDyHUGykEERQakmp0yXmQcymyvUdv8sfPa0rmCxSHbKAKyE4aGyntqkXSMmk7zz2HG0uNrQrMKBBisyK6fVZyVWLajht6HDQWuCl1dLbqrMP9VXkYBBFxh5bLrqGm1uLNkpFyYr9TNTqj79+pfVR6DDRKRM5XJYEXQ1+Yrb4Rz3H2jUoLlmqghHWbOqvD7N6kQt+RWrL3kbvju+XYco05eAl5ZnmpROGgzKRLTL181LA2MtjKMsMtr7S6EbtVZlOXuPY6CaQTE3ICXnU2KMm3D+sRxi2wSAOMabV15SUyUvcNK99zv8sdBqQZOQVNups7Mf8AwnZtuThWJJM9S5yXUPeaVCklKik8jaNE5wytdlFXsFK1TAtbaOOWxljljlHHC+B2uO50796T+uGhaAKWo96ztZ7nzwnJRmdlXpZ5IUhxJSoRpBQ5ii1Bcs4DqHNpfemKHRFTiw88LMD/AO0NoS2lKUDVCeAESFddZAQ+NdPfzhipSb46jwv3GNZJ5iCtI4qAiYq0kwM3Qo9wifrL8zdCOojuHEw+w2+2ptwXBifkXJNwg5oPuqjRaguVWdC1p/8ATtEFZ7/KEIShCUpFkpFgMDGUZY8Nu8ecK9037orCUpqk8lIASHlW/mJF0szss4P0uJMML12Gld6Bs8seUZdqGxp370n9cNCVFVOeHc52KtUKRrMsGplF9U3SrmIfkFyJDJRZIySRw2EvPJ4OKH1hTrqvecUfU7EvRzVAW1oPsv1KinyEtT5ZEvLo1UJ/kmPXb9dz5RV9GaaufmFEuXUsqJB74lNHKazMNrstdiMlHKGQA0gAcEjcHt+m7WtIMuBOaV5nDQaZ680wVcgoCOe7vFtqYlmZhsodSCInaE+0Stjrp7ucLQtBspJB2W2XXTZCCoxI0BarLmch4RDTSGkBCEhKRyxtjw2eeHfA2ZwkzLxJv1zDfvpsOYhvJpHptc9vh2rSGV+80qZQBcgaw+kWtlGjc6JOqsKJ6qzqn67N8ct69KS74/MbBh3R+TXmkqTCtG08nzCdG0fqfMM0GSRmq6zDUuy0LNoCcPPY576YdDTDiyeCTCzdRMSKCubZSPFAy2b9u5bC0BaSk8CIrMmqTqMw0RYa10+hgEg3GREUCpJqFOZcPvpGqseY2+XZ+W3z2MsMsK7MhEuGea8KExrPqcPBI3J2ctz57Ft9plTPasInGxdSMlYaN1c0+cCVH8lzJUJUlaQpJBBGX7Ny2XHEtoUtRsAInZpU0+pw8OAwpLHsJVNxZSs975bPDs7zKHmltrF0qFjFbpblNnVtEdQ5oPeMNFdILWk5pf8ApqPbuexz3BMVmoB1XsG/cHE4UqS+8v3UOonMwAAOzeXZK1SW6nKFs2DgzQqJqVelH1svI1VoMAkG4JBEUDSstasvPKunglzuhpxtxAW2oKSRkRu/LDhhxi2/57ha0oSVKIAHOKjWNbWaYOXNUcYYYdfcCG03JiTlW5VkNpHmfM73OL7PHs3ljXKCzVGrgar6R1VRNyb8m8tp5BSoYUuuz9NV+UvWRzQrMRT9LadNAB78lzuPCG3mnU3bWlQ7wf2NS0IF1KAETNYlWgdU66u4ROVKYmjZR1U+EYMsOPLCUJuYp0gmUbzzcPE4W7Hz3A33rjU6RKVFoodT1uSuYiq6OT0goq1PaNclCOGDE7Ny5u0+tPoYb0prDYSPb3A74GmtTAzQgx+Nal8NEfjiq9yY/HFV7kx+Nal8NEMaQzbjLayhNyI6emvCmOnprwpjp6a8KY6emvCmPxBN9wjp6a8KY6emvCmPxBN9wjp6a8KY6emvCmOnprwpjp6a8KY/EE33COnprwpjp6a8KY6emvCmOnprwpjp6a8KY6emvCmPxBN9wjp6a8KY6emvCmPxBN9wjp6a8KY6emvCmHq1OLFkqCIVVp1SNUuw5MPO++4T6nGUp8xMq6qbJ7zEnIMyiSEDM8TFt5zwOxzjv7R6bCkpUCCLiKlopT5wlbYLS+8RO6JVOXuWwHU+UPSkywSHWVpt3pOFxFxFxFxFxEp/wzX9vbAhRNgCfICGKVNvW6mqO8xK0NlshTqtcjlCEpQnVSAAOyc/2BbLTgsttKvUQ7R6Y8dZyTbJ9I6Ao/yTcdAUf5FuOgKP8k3HQFH+RbjoCj/ItwmmSCUhKZdAAjo6S+XTHR0l8BMdHSXwEx0dJfLpjo6S+XTHR0l8BMdHSXwEx0dJfLpjo6S+XTHR0l8BMdHSXwEx0dJfATHR0l8umOjpL4CY6Okvl0x0dJfLpjo6S+AmOjpL5dMdHSXwEx0dJfATHR0j8BMdHSXwER0dJfATHR0l8umOjpL5dMdHSXwEx0dJfATAZbSbpQkQP2zljfdc8RvuO8t2TLsN8ecc9vyxt2PlF+z5bR33Pej9iHZL9i47frF95l2fPectxnuPTdHtPnvThfY4Y88RF49ML9g5dhyjLDyjLHLY78coyw9drLsvLYHaTusuyX3XLsA7Tx/7B5Y89m8cNzluR2LPsXnsZ9nGPLAYemB/Zs+3DcjsxxHYee1zw5bXLfjcf//EADwRAAEDAgEHCgUCBQUAAAAAAAECAwQAEQUSEyExQVFUFBUgIkBSYXGRkgYjMDKhEFMzUHBygRZCY6LB/9oACAECAQE/AP6OoaccNkIUryFJw+aoXEdfpSoMxGuOv0pSVJNlJIPj/KImHSJRuBko7xqPhMRmxKctW9VLkRWBZTiEeFHF4AP8U+00nFoCjbPW8wRQVGkpsC24PWpOCx3Llo5tXqKkxnYzgQ4ACRceI/kuG4VnAl58dXWlG/zqTMjw0DK120IFScVlPkgKyEbk9BKlJIKSQd4qPjElpJSv5gsbX11JdkLkrddUc4o3JpiQHBY6FfyPCYAkOZ1wfLR+TWITkxGtFi4ftFOOOOrK1qKlHpuNpcTY0tC2l+I1GmHQ6i+0a+3Ror8leS2m+87BTGBsJALyyo7hoFc0QP2vyafwNhQJaWUHx0ikJbhxAD9rabmpMhch5bq9p0DcPoyGs4jR9w1Uw5m3BuOg9tiRVyng2nzJ3Ckpjw4+xKEipWNPuEhn5ad+01yyXe/KHPdUfGZLRs78xPjrrEsTbkMobavYm679Cx3dOQjIdVuOmmF5bST2zBY4bjF0jrOH8CsYll18sg9Rv8npQcFceAceJQg6htNMwIbIGQynzIuazaO4n0p/DobwOUyAd40Gp+DuxwXGiVt/kdGaNKDUI3bUNx7UpSUi6jYU7NJ0Nj/JrBMcQ+0GX7JcQnQdQUBS1Fa1KO0k9HEJimrNtmytZO6sB+JG5LWYlrCXkJ+7YsCpWPLKiI6AB3lVzxiF757/AKiouPG4TJQLd9NYpi6UozUdQKlDSrcD0ZupvzqM+hoKCr6TSZLKv91vOgQezrWlCSpWoU88p5XhsFMw9SnPbSUpSLJAA6JNgTTrhccWs7TWGxwhrOkdZWry+i+xnQnrWtXIv+T8UuK6nUAfKkOuNnQfMGmX0ujcd3ZpjuUvIGpNQ2ABnFDTs6cjQw7/AGH9GAAy2B3R+uKEjNWJGustfePrWWvvn1pH2J8h0nmEOjcdhohbTm4g004HEBXr2RaslClbhSElx1I7x00AALDprTlIUneCKUkpUUnWDaoDocjp3p0H9Xo7T1stN7aqmsRmWxkpssnRpptBW4hI2kCgLdOW0FIyxrTUReS5k7FdklGzC6hi748Afo4lGKF51I6qtfgadxwwH0hkBZv1xstuqBjeHzUDIdCF7UKNjWUm17isQx6BCSfmBxzYhBvUXGTiDis7ZLuwbCPCsNjm5eUP7foEXBFJOS4PA9klC7C6iKs+PEEfRWhLiFIULgixrF/hqTHUp2MC61rtrUmiCk2IINZ1y1stVt16SlSyAlJJOwVg3wzIccQ/Lu2gEEI1KNABIAAsB9GViExUx9CJDmQXlAC+y9N/YnyHY1DKSU7xQym3PFJpKgpIUNRH0pGHQZOl6M2s77aa/wBOYPe/JR7jUeBCjfwY6EHeBp+liEpMSE+8T9qDbz2VhbCpOIxm9d3AVeQ0nss1qys4BoOuoj+Sc2o6Dq7N8T4smQ4IjKrttm6yNqq+E8OKUuTVj7uq35bT2VSQpJBFwafYU0renYaYmFNkuaRvpDiFi6VA9ikS40ZBW+8lCfE1i/xMp9KmIYKEHQpw6z5Vg2Du4i8FEFLCD11b/AU22hpCW0JCUpAAA2AdmKQoEEXFOwjcls/4NKQ62dKSKD7w1OGuUPfuGuUPfuGn8axRLzoE1wALNc94rxrlc94rxrlc94rxzlc94rxrlc94rxrlc+Yrxzlc94rxrlc94rxrlc94rxrlc94rxrlc94rxzlc+YrxzlLxfE165rvutTcebLX1G3XVb9JrDvhRailyauw/bT/6aaZbZbS22gJQkWAHashB1pHpWbb7ifSs233E+lGFDJJMZr2CuQwuFa9grkMLhWvYK5DC4Vr2CuQwuFa9grkMLhWvYK5DC4Vr2CuQwuFa9grkMLhWvYK5DC4Vr2CuQwuFa9grkMLhWvYK5DC4Vr2ChChg3EZr2CgABYAD+t/8A/8QAPBEAAgECAwMJBgMIAwEAAAAAAQIDAAQFESESMVMTFCIyQEFRUpEGIDBhcaEQgbEjM0JQcHKSwRVDgtH/2gAIAQMBAT8A/o6zovWYCjdWwOsq0Lm3O6VfWgwOoIP8onu4odCc28oqW+nk3HZHgKWKaXUIzfOhY3JHU+9GxuR/15/Q0RNCdQyVFiMqZB+kPvUMqzR7aZ7OeROXf/Jby+2c44jr3mobeWdtPzY1DZQxAEjabxPuEAjIjMVJh8Dup1QbQ2svCrCLDJsOjgt0VoFUDZ7x9fnWL4O9i+3Hm0BOh8vyP8jvrnkl2FPSb7CrW2M769UbzSIqKFUZAe/ZXs9lOJYj9R3MPA1a3NtiVoWAzVhsup7qxTD3sLkpvjbVD4jt008cK5uakxKQn9moA9a59c+f7VHiUg66hhTF7icnvY1DEsUaoO74OD4gbK7Uk/sn0cf7rGbIXli4UZunSQ9tnmWGMufyHiaJlnl8zGocOjUAydI+HdXN4MsuSX0qbD4XHQ6Bqzs2ikZny00Hw8Duec4dETqydA/lWLW4t8QuIwNNrMfQ69sxGUtNsA6LVhAEj5Q9Zv096e+VCVQbRp7iZ97mtpvE0lzMm5z+etW96smSv0W+x932VkOV1H81avaiMLeQv5o/0PapJEjUs7AAVc4wxzWBch5jUTvM2oJY99KNlVHgPd9nMIS4JurhA0YOSKdzGvab2Yaxc3VopNu51Xhk/wCqiw8ZZyt+QrmVt5PvU2H6ExH8jVrZkttyDIA6D3fZX97df2rWN4Vc38kDQlegpBzNT4JiUIJMBYDynOiCpIIIPZ5ZUhjZ3OQFXd3LdSfLPorVnhOge4/w/wDtJGkYyRQo+XuopdlUb2IAq0gW2toYV3IgFe02INLc81Q9CLrfNvg4Vin/ABzSnktvbAG/LdQ9qx32no9W3tFh8xActET5t1XeH2V/GC6g5jouu+sSwqewcbXSjPVcdmxa6MkvJA9FN/zNYVZAKJ3Gp6nv4cAb+0B4qfr+F8zNe3JbeZW/X8ccZhyGTEdauUk87etcpJ529aj1jT+0e9h2K3Fi+hLRnrIaVrbEbTPR45BqKxCyeyuXhbUb1PiOyTPycUj+VSahQz3CIf421oAAADcPfhkMU0cg3owb0NRusiK6nMMAR9DWP2bW2IyNl0Jemp/G4tILjZ5VM9ndqRWJ2tlbQjYjykY6amoYzJLGg3swFAZAD3/Z2+MF2IGPQm0+jV7R2gmsuWA6UR+x7JiZIspfmAKwlQbwHwUn4PsziQmg5pIf2kfU+a1jpt7mLm5ALg57XlNTWk8J1UkeI/CCzmlI6Oyvia9o8IuLeXnKsZITkP7KwazJY3DjQaJ8BHZHR1ORVgRUqi4s3BH7yI/cURkSOx4ku1ZTfIZ1hT7N4g8wI+DHLJE6yRuVZTmCKtsQSTSQ7L+PcaBBrZXwFEgamr29iKPEoD7QyOeopVVVCqAANw+DHdXIgRTM3UGfpR3nsciB0dDuYEUpe3nB/ijb9KjkWRFdTowzHwknmj6khFc+uuJTzSyddyfhQxmSVEHeauHEcEh8F07Li9qVcTqNG631rCr0IeQkOh6p7NYWxQco41YafSsSnzIiB3ansrosiMjDNSNRV5ZPav4oeq1WeKtGAk+bL3N3iop4phnG4YdiSOSQ5IpJq2sAhDy6nuFXV0sC5DVzuFEliSTmT2Z0V1KsAQd4NXODnMtA3/k08NxCekjofGhe3a7p39a5/d8dq5/ecdqtraBreFjECTGpPpXNLfhLXNLfgrXNLfhLXNLfgrXNLfhLXNLfgrXNLfhLXNLfhLXNLfhLXNLfhLXNLfgrXNLfhLQtYBuiWi8UQ1KqKnxEaiIZnzGmZmJZjmT2owwk5mJCfoK5vBwk/wARXN4OEn+IoSSAAB2AHzrlZeI3rXKy8RvWuVl4jetcrLxG9a5WXiN61ysvEb1rlZeI3rXKy8RvWuVl4jetcrLxG9a5aXiN61ysvEb1rlZeI3r/AFw//9k=;" vertex="1" parent="1">
                    <mxGeometry x="514.0799999999999" y="610" width="124.45" height="70" as="geometry"/>
                </mxCell>
                <mxCell id="49" value="" style="endArrow=classic;html=1;exitX=0;exitY=0.5;exitDx=0;exitDy=0;exitPerimeter=0;entryX=1.013;entryY=0.275;entryDx=0;entryDy=0;entryPerimeter=0;" edge="1" parent="1" source="13" target="9">
                    <mxGeometry width="50" height="50" relative="1" as="geometry">
                        <mxPoint x="400" y="320" as="sourcePoint"/>
                        <mxPoint x="450" y="270" as="targetPoint"/>
                        <Array as="points">
                            <mxPoint x="360" y="80"/>
                            <mxPoint x="360" y="220"/>
                        </Array>
                    </mxGeometry>
                </mxCell>
                <mxCell id="50" value="" style="endArrow=classic;html=1;exitX=0.5;exitY=1;exitDx=0;exitDy=0;exitPerimeter=0;entryX=0.25;entryY=0;entryDx=0;entryDy=0;" edge="1" parent="1" source="9" target="41">
                    <mxGeometry width="50" height="50" relative="1" as="geometry">
                        <mxPoint x="400" y="320" as="sourcePoint"/>
                        <mxPoint x="450" y="270" as="targetPoint"/>
                    </mxGeometry>
                </mxCell>
                <mxCell id="54" value="" style="endArrow=classic;html=1;exitX=1;exitY=0.5;exitDx=0;exitDy=0;exitPerimeter=0;entryX=0.006;entryY=0.275;entryDx=0;entryDy=0;entryPerimeter=0;" edge="1" parent="1" source="13" target="6">
                    <mxGeometry width="50" height="50" relative="1" as="geometry">
                        <mxPoint x="400" y="160" as="sourcePoint"/>
                        <mxPoint x="450" y="110" as="targetPoint"/>
                        <Array as="points">
                            <mxPoint x="520" y="80"/>
                            <mxPoint x="520" y="222"/>
                        </Array>
                    </mxGeometry>
                </mxCell>
                <mxCell id="57" value="" style="endArrow=classic;startArrow=classic;html=1;exitX=1;exitY=0.5;exitDx=0;exitDy=0;exitPerimeter=0;entryX=0;entryY=0.5;entryDx=0;entryDy=0;" edge="1" parent="1" source="9" target="10">
                    <mxGeometry width="50" height="50" relative="1" as="geometry">
                        <mxPoint x="400" y="160" as="sourcePoint"/>
                        <mxPoint x="450" y="110" as="targetPoint"/>
                    </mxGeometry>
                </mxCell>
                <mxCell id="58" value="" style="endArrow=classic;startArrow=classic;html=1;entryX=0;entryY=0.5;entryDx=0;entryDy=0;entryPerimeter=0;exitX=1;exitY=0.5;exitDx=0;exitDy=0;" edge="1" parent="1" source="10" target="6">
                    <mxGeometry width="50" height="50" relative="1" as="geometry">
                        <mxPoint x="400" y="160" as="sourcePoint"/>
                        <mxPoint x="450" y="110" as="targetPoint"/>
                    </mxGeometry>
                </mxCell>
                <mxCell id="59" value="" style="shape=image;verticalLabelPosition=bottom;labelBackgroundColor=default;verticalAlign=top;aspect=fixed;imageAspect=0;image=data:image/webp,UklGRhwtAABXRUJQVlA4WAoAAAAoAAAAfwIAkAEASUNDUKgBAAAAAAGobGNtcwIQAABtbnRyUkdCIFhZWiAH3AABABkAAwApADlhY3NwQVBQTAAAAAAAAAAAAAAAAAAAAAAAAAAAAAAAAAAA9tYAAQAAAADTLWxjbXMAAAAAAAAAAAAAAAAAAAAAAAAAAAAAAAAAAAAAAAAAAAAAAAAAAAAAAAAAAAAAAAlkZXNjAAAA8AAAAF9jcHJ0AAABTAAAAAx3dHB0AAABWAAAABRyWFlaAAABbAAAABRnWFlaAAABgAAAABRiWFlaAAABlAAAABRyVFJDAAABDAAAAEBnVFJDAAABDAAAAEBiVFJDAAABDAAAAEBkZXNjAAAAAAAAAAVjMmNpAAAAAAAAAAAAAAAAY3VydgAAAAAAAAAaAAAAywHJA2MFkghrC/YQPxVRGzQh8SmQMhg7kkYFUXdd7WtwegWJsZp8rGm/fdPD6TD//3RleHQAAAAAQ0MwAFhZWiAAAAAAAAD21gABAAAAANMtWFlaIAAAAAAAAG+iAAA49QAAA5BYWVogAAAAAAAAYpkAALeFAAAY2lhZWiAAAAAAAAAkoAAAD4QAALbPVlA4IIwqAAAQtgCdASqAApEBPj0ejkSiIaGRSSyYIAPEsrdwukcS/oBe/Q+y+kEf4b8uPGKsP2T+t/tN/afe9rH9P/p39t/0P9092v+q74+k/+X6H/j36L/qv7X+TPzt/y/949hf5w/yP9o/f/6AP01/5X9t/zftN/532F/1z/hf5L9QPgB/T/7F/2/8H+//zFf6X/ef3H3Df4X/Jf9b+6f7T5AP6J/cf/P6wH/t9x/+8f8j/6e4B/Of7n/1vZ4/137Xf9T5Kf2k/a//ffIn/R/8l/9fYA/8fqAf+T1APVf6U/2bs3/tH9F/tXV0+W/Zz1vsmdqn8W+wH6P+8fuX8bf3b/MeCP5D+++gF+Ofy3/C/l//hf3E447Xf9p/svUC9v/on+1/vH+I/ar0ZP7v0L+zXsAfq7/z/YTvWvuv+89gL+a/37/nf473Xf5L/0/6L/M/tZ7UPzX/H/+L/OfAb/Nf7F/0P8f7Yfr2/cH/3+5t+wH/7FMMvG6FpVMboWlUxuhaVTG6FpVMboWlUxuhaU56nS/K0rCka6sNPN8e+9xsL6n0Nlx8Qbm6FpVMboWlUxuhaVRPDB9fVeK96AlU9qVe1rDsupOpfPG6FpVMboWlUxuhaP2RHdHv0nmuQtKosCtcdabLsSG5uhaVTG6FpVMbcysUlIiUZIbm6FpVFN350BYG8SZeN0LSqY3QtKpjHeYH4mhmrSqY3QtUSeI1FX4LSdtlEBwN8LkxtzXsnP/8yBHpRsfiTs8bCd27P8D0pMrkxuhaVTGOnBnvmniSiA4G+Fu4F8rFqO+jn18BvhcmN0LSAHPudJxWlUxuhaP6QzyKepfcboWlUxuhaVS+fekCH4rgpmDfC5MboSQ3wShyqY3QtKpjdC0ql65bEcNEu35V2XVxuhaVS/NW+uNuN0LSqY3QtKpjdCR4PBePrakDfC5L5ZUb0kDOdC0qmN0LSqY3QtKsw0ywcfDW9fvIWlURKq6TB7jR9KpjJVNxSuRleeAZXq0GLHoR9Fo8MbcboSpK8EhK9PIEbctz4bm27yHYwBbTnAJTgqSt67CzmXqmRXZuTl42xdIgsZ1Ne13TdkAm1ly/RpQ+wVT41A85AsPsMpp+9wJk/tsM0HUFRKZV2BR3Wm5pTouOTkujBZssylpBPlCa7wwh9TK06aKpfOfzRd8mqPu+Y+jTcvoTJhsSAV5lovQY9/j3IssgONJRfViPtA5xsI7awOLSHV77UN4CWvvpiKoSXRStLbLpTxOFKc1/BH4VTQIgVehHOTc7aFHPi8lD6fK3vSntCEnbtSOZFoTr9LKZrMii1wyAuMNXzXbX5aLISYZ2fd+FoM2ZodiAWLg4lvRKnHDqBmdmn3yzk2WgUtwJ2Oj9vlwc84FY0kvNpML6hOXfRJg+uBvDYcWU/0j5bhOYXg0w430Ea/zT3T7BGFLZ9lcZpWXZs4bK8AfHS8tu0C61jtkN8g7eYFUKJKv/mzc8bxxbfC4bfrbcmisOijbQ4NX9HzhseQTTsOZRMQmQy+yXz/eqnghkHX5PJSBeG3dr41HRkdui1oiQbb6qY3QlPqmwfjJQ+m466fhubcmXOf3NwqOQJackp4LRXr3+1cuZ1D0OIZ6TEPXLNM+P33rFDb/Z1K6ufz7MPWQLBS1VdpxbSG4JJAI1TcnF7FbUIoULSqLNWWnyIDbxTw0wcLXQTo83l1AQccIahv7tpDtwfeFv4rzM3TaA4GjXeio4TY243QtKpjdC0qmN0LSqI7AaOhVCiA4Gi2UAXD2LOVKpjdC0qmN0LSqY3PWTruWVjw42boWlOsn4GG0fZwhr/8lUxuhaVTG6FpVL5cgo/ex/d/8/Ry6CFUQHDgfuWXezjVaoLVE/Lo3vkujcJfDnazC01us3UHO1tWeLL2oZbdGs3QtKpjdC0qmN0LSqY3QtKpjk9aVTG6FpVMboWlUxuhaVTG6FpVMboWjwAP79DQAAAAd6NDZTGwy48SGB/ED423cUoevWHnNvdl/tsE5jB3VGgDSBLeNVeBclzXda3cIr07OcAvDg6YEvkoDYaZPa+vP9EIWRUX933sPX2UfrbUJWYRGK/8lwV8kWv96+2N4mLC1Azt/cdwG3FJSq59ui1L2oNYP9IBnoOGtQ7jC8urYbDOND3asvMT4UOa1Jw++Ep6urnHBMO6w8qfEN/UsJ5iK0KUyfrNfrNjMYSmhPkBgL2thFAMCHQFasEXiH9nCkjt/wo7TQDbQUIQmAZ1g4q7DaiLQodeEI9WC1EUCLiWoGE8HcxTCAW90qYcaFtSBa09s3m9X9+ZpVGiKQbXr6V8118to7Z4V83xpPBkUvq2ZMZLap984kx6iHTV9r7Djq7fl3oQE6WIr0R1HzSNvQW9JPbfRvyPxSGd6zcIAA75x/WO5cLxXtxKr+UChvuOG1XVqUrAvvEp209mm8d4h/PSc2aZmFUQ19V9sS/AqNpTMXjQRuk+4d88CBGRXeuMh9W4Xir8h7TgJudbR4WTYDSTIA6VED8395LsCeH9CjENzo7qn2ERcKc3wQaHdaO3lchcq7hbzqKqmkXbK5aLODYAWv8XTxOeuJefj5r++idKugZgTegttsS5F1V5pPrR2uEkgXro+veN7JNW62SK4gHY9wRxXS8uHJvEBje5lN83xmE/iEKAhvU/g/f1sfZURkNofY2juoE/adwzweRgJDnQ7KemAxmB99ac5Vh/8RhWopgXxeoLiwAE2S3qmfWMOPEZBRtmdHDy5vNj4dtfahX+ULPQN4q8iEaKdEuSdadZEZbKnrYDTjCR+db6SN4wfiE+FwWd874P1SyhFQDZuEr4aNElnsOgj24tZctVAfFRcs0aMvp+RCflXN2X3Gc3uNa8AAGQZh2zfwjToK+lgoGKwPAoTS1X1iBOTBaCGQTy4xWzMqt+Utt2GVJ7K4353UL6GqideqiBxsik7cNkZne2IDv3ZdE14b1QqTvwOBmAJS+4no0lKHp+8cAI3McBbyF5+NVvdfjrJ4NTKLBa8awlJVKZW3ZOYF7g5w8D2xDScVp2FftL1un/0WzSJuAuM9DdNm6h7VJCbS+wITjNAMs0Qw/HNk8BsIOVxlanqr+K6Blk7Ac0yFm0Dwd9ywk6TbKAHzzViQePce+vbRf34ZnzSdm5ouTM+h4nXife2Zg9Alj3tlBYYfZ0llvJUCWTXn/jdSCO4OogQpb8aEps1jpPs6ettqGwAnK7TrsYAEtTIk8DmwllzEPmSrX2acXil+yOjmtfBDbP8QhGEvD+3bSr3FntzKjuz+LHFljHvpvMkYCKxAASt9L/jTnidkwsrvkYm/ZpnrjVXJG/tgCVWMojJ1QWet8+rYrDG2L1/YPjdkdpfHX3kfOc0iS4gCGySvnYmNsX/pBuv992tFwQvMTllw60hCf+b72shU8mrzqLi8nAOwYcrhm0Re4TXc/7sysFowxdZkmOMC+YSYQZuLRmPhhcP4qjI1Vt2DkBN83uzgjubZokMxciFowQJF6vQYplzObilp8gN5MUQr1bWbRqXGUN+Zj3FXDhjXo6JMrFYPVeHPC2tAE70hmYWyDAWlEZIKrWcPPKYy47tycvv4bkSi6qbs7x52nA8rlZGRouLi4rkiRcHVyZJo3T2I9InIMe7PqWj9jE61+NKj3opPgiVot5xtyT+VWV4FfoiNXh2P4dYTPdqCKiqvFP4SmZUsX/jK/F6gV8J+nm88RMB0oyPC8Rk+VqbIr5twZYQGOo3bAOyax+r7dU4Z0XprW5CTOC1XmExzmp/7JqH8G9HLf9NkgB61Ikj3+xcWBiXe1n0cz+MEx7/fH7X+eEka8+JjQ38cSnoS4XuU9CbYzJN0freR9reKr3NoKbt7g5TSAOjhCtFTHbwr2kmdkpuahlsPaURC8Ma9t1cg8lMBgfOJuka4YVHZ1ijCUi+3vXYSkZLYfQqG1pMldF7svgToPv2GceZar36HZxRVMSAquhTay0k1CVlaLv35fKAAAQ4AIeL80P3NvwWTGDhi7Zk1yDyniOO72KSQ0CJ+yFCz0GSoL7u6o7BHINQdJ50c2uvX35AK+bW3Uwr0RNdChLN8o8iGX7tFzYQHvfHaAcPupHuuN/gmQAWliwiCGSdvNjI/2q55Bzf27pjkMf6Hxz06RZdp6+5vy+9+nYxI46BsAABgFFs6yyAbpyv5qubuGZS5DQYvz0bxBDLikUiI/MuMP4iHkN+dq5aGoc7x+j1Zm0r0JGh8NUVTZanuTnQUihbAiGkOclDV3d6zqk+XQNV9gWMuS3N1KNg1vit8on+hQW12ZdwHQPUQ0QwWW5yYTmyZQIozMkq8KeVUXgXFoQAAAVkuthN4EA/vaq/04hNh0iNrr4ezstnEh6Frqo3Tbj/egD/LymP6baRyIXdDs/TI/w2GUqPg5bvQDT25AVZZDY8KPxnfUO03E5zTkho6ffXIHFiW9sfW6aAxrSMy13ce4713ciBlYUroFxdzw3wnvfGFEbu7kf8qFSoqOCh6eZkTP++uZy2OD9+ZxMhltY/mlQMWaQK5lLfjrUA4gAAqFqk3eswYwPHsOcKSTJJqAyYkGO7vFz4RGrCVLdrvsGsBDNkoxpgOr8ZcblHUNSgfYFEtS9eB/cgCxQb6CLTGav7aVpTJTsyp2m2OOV61uGBBToURefvRCtfVmadELMX5DkUPzEG4s4meNm34O2SFe3S3xUxievMgXDf+1clYcwtRhRqkW4j6N7k8/oEACVYdd9OaQyYYt7/OSoV/9MB0tvqtqMAQdtsXpXo7zPeqRHuRjg7sSC3ppXKcChIfv6DN4VCdc0a5+y4Ihm+mDoGXdl+yP9g+Daxt5UommijqR0v4jorwPQSbLhruugOvDpr0B4Xgf0KrqUsLlZdW0FPHP/mvEceI23SYTR6SIePp70glH5/Ls77HyTtgQPG8UZhFxvNDqCRT35FDzT+sJTzQH0fdPWJ2Hqa5JIzh9yNKnBc5S4s2YFzir/eAU3moJgjH9Bm8chlI52TyIlrAXbmfgGfHbf+vQi/X7C9rj72qFmWPnPzYkscciHQu7HJuDXCzQAgfllHXwGRfNKGjV4LXqhZnSPVcgDNYSxgVFbKzMxX4iDNBH3yD+fFjBJHDoneiq3wveDgFHaYZUonJQxpVaUN3/gM3Ird8qh2TdjV1jliTHzZF0OCWmIWHW6Fz9VGBGT4ZAOfTrybfhc0pB1en1AvBCCKmHb/SGuEx8f6kCY2OF/kBSZf/8ovGIPwa/FqL4ShXeXZbKTjfZ5/HhLq6P4xQ46M9X/RXjb78TKdUapA+Y06+cOCsREiGgP9wiGnjHyExxnBT8opR47vPnmsn9dO0Ov4lasP+GcTilPCeauOvFjgRKmxSn2KabdKxQEeM3QSDa6G/WFA0vJ8DdsxtSmpvn+iirkrJGX5E0ohwfYjiyw14MEN+EfLHh29VqAQzPXXgrmepcGBk3uWoQcHJwLvfCK0lEdR7rUEFA1nS7+pYHpF+etBiRBCfKAMmarN3D4eIxdrem3UXf12pqiU2k62C3pWtnE5PtNgZVJCXV0+dc4Qr9T+0ALW+hk/SMv9mVzKhz4WvMwTzEROjRKv1jFktRvViAlKtPxhLCEYTfqbVvENF9nj7ABT8jIePj5jjt010XeayO8A5yhpLC2fDK2JWHCd5ZX3EzqtKWiqrKCJrCv7FbWib32/PRQVCggXU5iBM5gl+X+RUfj403tLPH5yVwc6jO8t72K/GFJGn7TyXpKRlwTtW/m+yRmBxkB5CSzC+Z4GIFi1OIB0QsIWfjURhmuQSUcaYIo5GrvB/0e9B7ZdSZfWIU2ugcxL41B2Z+xxyW7iVxFHDAs/TPWORfEfL+TvSN2r1unb3nzjaNMNEAE8gC5rBDNVYAsjWRSdF5LfQHhrfBrFYEnqmRQi9KYNvgtHHoFo2qikBI1Kr4uoeqw3Z6a3Si4GAWLAWRHSh7YcxYrH0aXN/f1TKcx78YeYhN4H8LGTgppsud7yBTHNMhDJXZDi7UFCA7hrk+8ffGcAd1SkyD6XaTgU1v353ob6Tv2/oqTrvNF3GIQE/BlpM5v9f2d2tsRu5wJTz/idukCKlAqsL5ksp/ggE1CTi4jL+liG2I1sBNQf+Px74h1PKwdoaspYxpWtne+p6nem+Ks4W5dApnSd60FEC29CjxZY8vs4N5sOYayu7GML/OQ+jiMmxb8WfTmLhundXJXxR6KIuLoY4eJjuHC8FMDsQ8QL4po2Vh6R7gBXqytH4iz/uolqT8Wy8k3yLN8fkfCms3OgQjvP7YAKn7SLfF40zxyxH5kPAIgqIeSbcWP8SSV2csfQzzFnSklJ9ts2KS//wNdh+rZmv2/LVG9BkZANO/+/91HyQ9y8yY9JuDSgc8m3GfgnVV6JFzgla+KT3frFgqDlrokAEDGdxfo6/8HIL3VvuwnFs+lbCZciCheGMTmLqbCX/MDKuzCnhvRxfdrYQXIFU5jVCTAm4DWamC8UfBL7dKvPigKENqKFdceJNHPGyAmJbLglBjygipH032sxBysU0l4zlqMx2L0UnlScNDAl1yxifWt2m4y68adZjUOSdo+L21mvigi90Gy98LXmzHCJpPkrHel/gmqSZ9GqNDjSVaCUvSoQrEAnpsjFRo0up4JLXeRyCeimXwcHAG6kJ+u3MJOuKX4w5M18/qnVelwkkeb+OCPs7wKxrc03vnVuRARf1xccedPU6TQRMbs3LPDVkbt4eDKtihlVJOYd5f+15PRZJVNuCFxoMVSbrqr8RqQvFeg8lUtAq2A30oL3eLAy8qZnn0NKDdPhRw/bT2obw7E0tthTAcP5Uo3ZSF66LDufWhRIeYUZTQfVTwznZ0tgQFc3n9r+RWGIQEdV0eJ/fFNTnbxKT5/nND7jUsrwMug3mmI8Yb3EvvmgBFjripycncrQ3lyx10T8mzBHOZvqAd9/yp3le5cJWduwSHiBeZL/3y7tuQSyHiBBODkKzaO62vk8s1R6v+V4bpTzXVuo3J29L8dL9SR3hLnxlf+uNYgRHkn2XVVFhqTIFeEWgtzTdGPxcKNRZaGYctGPa+5LTxAf2/Xz4cWJSMgSfC8pqUrEtGhTRYqwbvQtsfSrYnED9HypNkUNc+i9C+GjjwcCt6Zvx4ykCY53Vsvw7xDP8Wqn2RT1ZikRC3pcAV2YHb/+VJ0Ne9hxu02B97j4S8sQa00ftc8vN0JrDhIl3ymkTZFKHdnbEbIKDi+722mTQuKrGR9CLiqSJga1E8wSAAq66EweTNIlIe6VmA0wG/fgTFvxtcuOyKIEjVevxhdBRqAXW+zsLGA/TNee5LZn7N840uLu3rnAZ0CArTX+QiJWyxox/tTjknFDIntToUsvPknu0g/EWu35NO2KjwEtVhss0C7epbxronTbfScrTAmSMZD2lvElSK2+Bijs73depEmKoIiRaAeVr/nzE3nWhdbZaTAWo4gjvSpr3qNoCO8nrbwyy/ULx03tUDGWqKU6dPBT72zDM62mRFi6KkAhX5xPOCxqurAXCMuD8SIm01woMfjdAMU/nbvBw6hUMAck9z9iA3r0kv+T09XHa0ixO62kRh5KSd0RHbo15gHkP8lqJZOZ/rMOnrQLJ3V9twvOc2y7qrwSuKRzchdm3ubqXhkI9Vb9vua9zrswQti1VrIBpqKvr6U7K/XWum8636cYPShZSO5B2af89Svy+vT9VFR7Yvakn5aYxGl27rNG0RzL3d/73lri5YQ3YSxIzpmGz6y3qb26b89Ez9avOxwq6fbHUkX/25BO6YHtnfAShoXYn4dRIBBTGX3lhzjm5ZKu6ploJu2HTiOJQwNTMOICr6HRHLMkBWgpVIahQfyeEGff4Pe4g9RSH9lggUsaGLqIWrWYE4lqaOfJn90gP10vnz9FV+KUGdkwd3LY6fW3NcQ/MmSsfjnR5f1EyvOjQ1aU7FR2MavEA32rgeYn4G4M036PiAK0GGqtqsHllcwoqghRIsBJHEOVNHq5ty2KWpIqn//bMdBtA7MWDGUmtu7A2gWe5+wH/DrkvyjbAWAo47wvXyUlw/zf8ueQ9aBB1Nf60ol2ROqp+xhVLcSNH9p3G2ha+z+81tUUjd4zrSuaaLk9H/NaKdIo3Y/LkEuNQVhXRM5tdWe0XPSV8cYEQof0THsDjoU7hjpDyvvK/TMpmzYIMEhyUDun1S97nXuVrZdAenwUReYRJyYUeocuF0rTzFHJ1siyuHjTNIZO0sQ841BSYdEG3uea/GygI5ALTmXT+veaYCPxbfIWagW7yrSBJSasViqq7qStYMFfPLRvPI1b/te3FT/oTQ61mRQntFYlRExN4GSEuswR2OcnVjceWCKJClyrCcHYIXAEIYD0AZ78R+mD8RgCByC24DmbMQX7qFIU1oKcKj3xas9YMvnjePc/EDKAsePZJhzDiEQYPjUqgSKk4QA0g/1V2eOg/PNTXS5huSf/Q4YHbRCc9elyEAhTo9sw5bKpVAO4R8BU9Il4C6wOAHxZKjILFPbJ9sNsPrs3cTQgqY6J9AkM0ieQ6pmebemtM0re4jizH8Vd/rKrwWXL0XkfwP6nZTxlrOT63mQ37MBdlVu11iMbgIv6ISpXuFWUDAo4THDVGYSXKzlWChy51tT2FaFfMJHRdFzwATpr9z2s4NWebWibAIHLtecZ8UfHf3o6HYsBL5L0WTizAwVK9QC9PVmgBmYpZ+4oRcgwD7bJxQi0Zr5R6U9v2r8sbFkuMIiF7UxVsKgkkjyr5dI54h/bTgNocYtbXvvjhlO2GggeRkDQ93pv4jtFtCt8zJKmyWOYyiCG4uhMC3mnkL4IVxsWFcyU0n8Yb1oFbo0GHhp0rLWGMnwWihSfG5svVVPkb3oQuDltxCIszlZPhlypWabMEwVpgBmTG5Bri9fiLswCxe5aW2WqgtlmQHz/2dzM3cVC4bv64cXpyKYjctX/HFaHEgz3fQiwAsmph5Xw2/WrsPAqcneCsrVE2ZkraIT7R3MBF/un8A1DzV3pJvMvfzSTotOFRuCf8vvxL+VphRK1hBkZ+vSSjK+01c0BsCHPvFfrEUcfEn4nty6uvuiv0QMkFo2DITgLjJrdL6Ob8wNpwF2gAT6l2jI0Tuq3t4oX/0a/llyKSnjtzzXxWa3z39tBN1M0RIH7s50w4gAL7b9v2vs783CZ99BX/v83YxqxdWKFR88Sq/tBDbG52jvafLOXZWyvcRhrYQt9hM90NKgCr89G/2GqGp+B2OnRaLKjaZkACnM2BHluDAQILpkq0SpHrgdrh+mAeySWEzLdOjm9kFFO1qkKX43iU753ye4EwplDbt/LgYOx+x4Og+dJWGG6nIVoP6nxYB56BsRFzimbFUsl/LcUSo2A9sq+Pht/In5CllxEoWv96yNThohynhvlgAa2rPzVOGKCeaCP/sc81JEAgYmZg/GSX/Bc3sE0F7hy613/NbGsRG1t8B2Vkn+lZEn8+yuRWYVkAj1yKAv40NZSDOi/PNr9x3gwW6FqNHxYpK7r31tXKAe6QB3baHOfXUDv/WbYw+hMSCwNrdiP3/1gh7a8aUKtYW8sV7tFivL9vOmpw4MP3ZQ0GtRGGn7rhHSi8ZFvKpY4UWeP48YPX7Kw3NzvxTEI8ccQTRV7gtexpGsraaDk+Gcq1DzJAMEZjtMrNXvwN1I8f5mbUmo//q82pRue62/7emhsRWiN3c8ucn4qNkg89y/GBDmkzZwAqbZwSziln2Eva/dWX+BNtFHzVfIZGxyXsyNcKcvA8+peXjfR8BtffY7curUC3ohZ8TBHataIp7ZpWaSLG8X7/935jKV/M7O+0n55PLiXFVl6h2wox25vk9a20SHJtFBkwXBbLLMYw0ilQScaW97is2tesvw+tJOfluV7qsqYDFVxUP/AS41I+Pd6ppGEsopVHEUElnz54zZVktKOtW+LiZrNtcQNTVCENxL0uOd3PGIAcfMhwXZK6+CQ83FAu3S+o0U8DIqrPTTg0u2PkaIEHrnBODVU79hoYAC9BM5ceAwk2MPoAJaOnoBscZSqv61nGVRr6t4uRmd72dzihbcmB+T3w/zd0fYxg+KV400/qDkulRN5UrOSEb/KNLLu+1JZxQzPHrEgwFRFh+qXKnV4M7megsX4CZU8KhXk+sxfq00oFyl++fVAW0RPkV0BMNtDLa3WtSFVBi71cXxIUqD/JB+FM/wCKc1rBToIx/WCRdZY7ilkW79/GgHathvb+rlCprPOUjX75KnyW4VArW5dfOBALlST0Fop2gUXWF0O5CTyJPXbIFh1PsfcoYFWGDbtKgJBNnTyVl5iWT6z9+Ve/9othv4l8qVwo7/SVvMp4WWuYhV2NJChLsKSDkehKQAEezz77HiqDH6vH1mtyoDDqL3gwB8Bzg9ofUjOhNoA1RZorKbWEbZgQSOLsMwvG2CTchXN0rXwsvCfQ/GYwzQm4VI9Ah/kIk2lgJiICFGuBk72g94XMOkasOr/F3ENgzAofbE3tjcVN2FTp6GCGTrI5OVkUoP5w7RJ5ouXOYN2HRZuRvqD0N1+EoXvGjuGe+DL6bN12KwttPucibSdc2hIYw53cGnSW1niPNgTVkOI8reGIT1WOffMLQbdvHEDh/XalGxgw6ee0LU3Tuuu0/80oH1WHhmMsG+E8s7U/pR8wV/mQlm6PKTc3p+zB5d9UmPTgX16u9DSOGiTgvLwdcc4sBRAebCS+8lwoxFF8yZq8VhWdAAM7QwFtNmfaemppg3/BY1JhJulo2AHlxV6J7DgDiKwcyNn9lWanS2B53fsNjWDbzMO3q7+gR/xBDVNmKTaePwvLHO1Op10gxWioab6sxPDVWiPIX+rERYnCFmAZIrU5gTFip/NY7MJgq5kOqWR3kaEuQO9t0vcwlhV+Tg03UcP/qKbSOmmKludgfXBA5W+3trCqL+Ymo1Q/1RWylcXs/m9gN+E0RhSZfeCTLMrBZJa+BDw9ICND4vQirrkWq0i9Q3IJ+2aBzKQmQxDSEtYVbk3SAAw4p7DCnvjH0JF6LTuDrrVlQouyvOZ6uLoMMkNiysASnivz7bDcd/lpWVdU1GjK2fy9cshRjCPKTt1Po7PMKKOKFiuyj40aq5TCO+QToI2N1eVY+lzNHny2bAAdzc2wlHOGkMFd8r37KKGuIVQzsNr/+leHhed5P4U4AD6H7HiBh99b1ohRs52nczOz6wzkVq1N1xpUVecOJCwaOhgrfIRb8CNxWYbq7enLe2u43/Yq5USdYltKVpyG7GWfrsegyEeXVAg+z7mRjdBNZN0IClp72lVzo/NHxKo81xJKk/KNu9NDKGZq+Lj+d//illXcTOa6KYbjuNYbjvPL8cKXR/7vJ8t8FSrlSMRCcJn1o/Mlcsap0nYsvXLrKsRvLbKpX3hvclHQ25UVAy4IId3X5bJZjwdHNcY2fW1/x2MeO/73SQW5xUWZ/+UkiIhMfmgv7RgFq7bn27EpoY6F21lqUXQOla3w5XH8Cgw1vuyDEppP7YYX6rYCncs1kJHoZaaWcv/FV6W1YyKhCfPrRqHXTKvQuEUaswgNnvrQzE/dqT32BgCbBIk4Vd6brUdxHg2M09O8vZG483Q+PlGTGrEXtqdC/4tU+v2/gv7+VCiPwTm3vAVlKsCv+pXNYI5jdbxCBMy48Ex4kuwcC5Acc6rVppb0xlC9id4c/Uui5tqQtsGr/KciGrQmUm+FbMy3KtQjl3T/HIDwKkt1nMKa7KQ+dKICdLcxn3aBuPtKQexiO+YzS95HIO8abw1NMvRa+RvV5yEqbmgyJUPzJVnte/0vmbvOdz/wJiQyLcaGPwBRgdm61soJEB2I9+zCiDoZwJMpMrXZEQMDgawHSi1gAo7CNi66rz5qLmDpBTBcdKX1GSfQ0xrpdvn3DuZ7ZzjUftQdfX7e9E8076vu2IQB6RrlQKJkHH7QQJRVrLp30UdJnfv5l0Nb12wAKgEVdzEMko3tzchxHxPSxFkQ+MQnmIKNWaYLEuI21hrCfJpvC47wsxZYf/iNIvTjKJE3Teo8h/5XuAa41WU1i3QUGVaMOvUBzNj1nbxRqSUHj0qMcus7ATOCXv/8HnO6T24WOclh1GE9/ssBp7Pwf+3n+1HFwd1CMqF/qzBs19UvISVMZecbsDfxImiOlsiExeP9qoANEOPA8QP/0xrLx+YzVHNNzfcJeoZ4MYvf94tMclzFEye2WqOOK3gNtgZwy/L+oWUQUMtR0wqPYRgFJK3VoFvUJy0T0pvt/ZfByRHi3zpHXORmHtWmqrd+czLyHlNdydmzynbDl843h8shSWe0AA81VRENMrduIRAArWPC85BUd1xtpGxY3hGaRX83vaP9dI0GCWgf4Zm6iWUSe4L2MuNWR4bF0gyi9b+J/IYf5WqcoHIBrl7ZxXLSWugWy6JX1kH7UXYWlhnvmpZU2qUcVBRbS6QQh/eosLAzYhASnh4Kb9HAGbc9+kn+roowES4Sq6cWi968042cjVAgU/3VMzhM3+jwMS63WYptT6SAFN4XyalXwOut1NJ/WJYtv0h6FAiYILHlvhd520uJYK7YaF5NUeT5cw4oYV1pNnC/tkr+ESggmweUZ7TO2F5tize0cTR+qjJyfKZqb5zVU3VgtA+z7Qmc/2Vjc+7EURuPkBVzUcgQcGj18VISu+pr0NJ2qPo+S+y4wS42R7+tBIDOkkvq8486fIR93suYrAOXoevG3joBwEce+uRr2Nl4ICwqO3I1IOWZuZg+FtMXx8dwmlAkShItnpqqNa+9uGKo38N81YlGzWdrHEVxAXOdEyOYEM8rs2tdmndOJ8s0l80HIC0q8f9pcoSGZFxbv2P/m6g0iA1UmiQ9uVnEOA1AiqdVfInvksPARynSKhzLUcCcqDrQOhSWTSyoCzx6cS6xyJbTio3HzjkPzEF0YTUvvIqCfhT8EhAxL0SolrSbP8EZ9cF3ETrQlS2N1ykwK2vfWLuv6zDbYtxgpM7i0XehY0svJSWGGE4/1db7+0WPwbxIX/lyeiBDa/8axr8YBohxvZ508CrXSHj+Z9wTiCqErVJpXt41dxN7ZD25HkIwBOvfQiHtZ8SPnAET8sQK6sesp/4xukRiUriKE3yFaziIMeRIWuwZuzhv8HJ8s3pmP402NhraXxwPPYfyYLlwJY8KstePwT1fJSKqybiQWQY/n7eYIy7gzUL3jRpnplfFZA56ofCwGsX75K0O2h9pmcFzdhoSqFPlNo9v+Fs3o6oUpt8RcLKFKaK53VK1gyejy/ATudHSoIP4bHmgzC0MN1Wnx/KrtkhzrCS3spn5GAwanFH1J0CtMugWIBebKDKyrkUEnTKJY+jrFZQ3HBSgbbpNU/3AHkt2cpjzzMAGjprn6mD40fpuUvBoCt3rknCf5+B+Xts7pFtUhglrDaVAO8Ta2d6TefaQmtagjxjTaWfLlzMgAAFuDFUOoo5oBkhsKM2aAAOaACywqsMuewR8RFKSnw3yAmw7uO2LHM2NeuKEfDVd4KYylTzWKlJcQjX/e/0e2+wai863LDpA41qJdHeVNBNntsKQU35yFZdXUC8YhS/5RKHzEgUPSd1QWkowFBtN4YL4ndTqROOu5ocJT/08lXCeKGkil/sf54gqrjmVlpmJADJyIsLcWMH7cS570uPJrWAAvMnTmAzxUX26r/iWJ843zruvHZkPoIy9O8DLj+1Gvc7Wj+PViQHEBbDjK5Azcqtq25QnbvBDxlXf4PxrBcBIlAAGONO38M3ADP81y3vnQ5wJWFQZKusB2dI3pVKOeYgkNxkGTYf/QDcAFDdnvonbn4o/PVVkrEEcohdlJ4tDzKHhLlI8HEzw2kz8FeABEImN663wQyiTBvB9Af+7W3GOEseJOGJhDM7Pxpi4hB35FxBAV3erca8N51g6PYJmyHlYLiklP2JYMC/N9/rXIMUpYfv3n2ZmfzRwwUNqB7qOX3Xxl6EDc0rX5vsvB0pzGWGSjriV84wLs6wLU0BlT1204ikDdPvhgTFob+OqceBMlwE6dagEplUXXAaCcW8crc7wZs1EeRxQnzxHPwlxHDvYcnzRRTc/njL19WMEdnCIVdj6OceoLr5reXfGzvkiw37wk4MKsrGk2VrSjt4UcbNMT0uI/JNaB0oJKFMX92L+7F/di/uxf3Yv7sX93OqdVc1eM7Bnd8g5qeOGcAnoZ8q6oAyEXqjRlGfDhnjjxQ80ZdubVNwgMnqEEeF1imyrHFeHozqe/4AuNz8akSO2nTq3fOxHiNLJdWujHWVLG+LSn59Y5we35lttOWZgpMZr6E+7g1hLBDhAyWrVwN8kutUdE4FKHfB6sNnZzhmeqGfmMVohtoEwCO0qiHkg7TJ2AAAjfYeKIsSJcszm99uu5X38VLdExIx4OZ6Rad6hcKfjtJxADmhSlTgbVoike6pbjpg5rgEty65/zB3O/5tK2YOSAUdtppLJAKO23z/XDDx2Q8UwwWO4giEAaU0HdtGLp5qf/frSrihzgAjrHX34WHqwFWjXF7ECYzEAADLg4hCQUISChCQUIOAAAAAAAEVYSUa6AAAARXhpZgAASUkqAAgAAAAGABIBAwABAAAAAQAAABoBBQABAAAAVgAAABsBBQABAAAAXgAAACgBAwABAAAAAgAAABMCAwABAAAAAQAAAGmHBAABAAAAZgAAAAAAAAAvGQEA6AMAAC8ZAQDoAwAABgAAkAcABAAAADAyMTABkQcABAAAAAECAwAAoAcABAAAADAxMDABoAMAAQAAAP//AAACoAQAAQAAAIACAAADoAQAAQAAAJEBAAAAAAAA;" vertex="1" parent="1">
                    <mxGeometry x="376.16" y="605" width="127.68" height="80" as="geometry"/>
                </mxCell>
                <mxCell id="60" value="" style="endArrow=classic;html=1;exitX=0.5;exitY=1;exitDx=0;exitDy=0;entryX=0.5;entryY=0;entryDx=0;entryDy=0;" edge="1" parent="1" source="41" target="37">
                    <mxGeometry width="50" height="50" relative="1" as="geometry">
                        <mxPoint x="400" y="430" as="sourcePoint"/>
                        <mxPoint x="450" y="380" as="targetPoint"/>
                    </mxGeometry>
                </mxCell>
                <mxCell id="61" value="" style="endArrow=classic;html=1;exitX=0.5;exitY=1;exitDx=0;exitDy=0;" edge="1" parent="1" source="41" target="59">
                    <mxGeometry width="50" height="50" relative="1" as="geometry">
                        <mxPoint x="400" y="430" as="sourcePoint"/>
                        <mxPoint x="450" y="380" as="targetPoint"/>
                    </mxGeometry>
                </mxCell>
                <mxCell id="62" value="" style="endArrow=classic;html=1;exitX=0.5;exitY=1;exitDx=0;exitDy=0;entryX=0.5;entryY=0;entryDx=0;entryDy=0;" edge="1" parent="1" source="41" target="43">
                    <mxGeometry width="50" height="50" relative="1" as="geometry">
                        <mxPoint x="400" y="430" as="sourcePoint"/>
                        <mxPoint x="450" y="380" as="targetPoint"/>
                    </mxGeometry>
                </mxCell>
                <mxCell id="64" value="" style="endArrow=classic;html=1;exitX=0.5;exitY=1;exitDx=0;exitDy=0;exitPerimeter=0;entryX=0.75;entryY=0;entryDx=0;entryDy=0;" edge="1" parent="1" source="6" target="41">
                    <mxGeometry width="50" height="50" relative="1" as="geometry">
                        <mxPoint x="400" y="270" as="sourcePoint"/>
                        <mxPoint x="450" y="220" as="targetPoint"/>
                    </mxGeometry>
                </mxCell>
            </root>
        </mxGraphModel>
    </diagram>
</mxfile>